<mxfile host="app.diagrams.net" modified="2023-05-30T10:01:09.910Z" agent="Mozilla/5.0 (Windows NT 10.0; Win64; x64) AppleWebKit/537.36 (KHTML, like Gecko) Chrome/113.0.0.0 Safari/537.36" etag="LPt7FQJWyKcf1wHekCKd" version="21.2.9" type="device">
  <diagram name="Page-1" id="8oC6zJ3z3A0NpuRlcRHJ">
    <mxGraphModel dx="1731" dy="727" grid="1" gridSize="10" guides="1" tooltips="1" connect="1" arrows="1" fold="1" page="1" pageScale="1" pageWidth="827" pageHeight="1169" math="0" shadow="0">
      <root>
        <mxCell id="0" />
        <mxCell id="1" parent="0" />
        <mxCell id="O5IFN6yBmJt1TvF79zhz-1" value="" style="rounded=0;whiteSpace=wrap;html=1;" vertex="1" parent="1">
          <mxGeometry x="250" y="80" width="130" height="40" as="geometry" />
        </mxCell>
        <mxCell id="O5IFN6yBmJt1TvF79zhz-2" value="vue.Main" style="text;html=1;strokeColor=none;fillColor=none;align=center;verticalAlign=middle;whiteSpace=wrap;rounded=0;" vertex="1" parent="1">
          <mxGeometry x="285" y="85" width="60" height="30" as="geometry" />
        </mxCell>
        <mxCell id="O5IFN6yBmJt1TvF79zhz-3" value="" style="rounded=0;whiteSpace=wrap;html=1;" vertex="1" parent="1">
          <mxGeometry x="30" y="80" width="130" height="40" as="geometry" />
        </mxCell>
        <mxCell id="O5IFN6yBmJt1TvF79zhz-4" value="&amp;lt;&amp;lt;Actor&amp;gt;&amp;gt;&lt;br&gt;Private User" style="text;html=1;strokeColor=none;fillColor=none;align=center;verticalAlign=middle;whiteSpace=wrap;rounded=0;" vertex="1" parent="1">
          <mxGeometry x="57.5" y="85" width="75" height="30" as="geometry" />
        </mxCell>
        <mxCell id="O5IFN6yBmJt1TvF79zhz-5" value="" style="endArrow=classic;html=1;rounded=0;entryX=0.967;entryY=-0.25;entryDx=0;entryDy=0;entryPerimeter=0;exitX=0.024;exitY=0;exitDx=0;exitDy=0;exitPerimeter=0;" edge="1" parent="1" target="O5IFN6yBmJt1TvF79zhz-6">
          <mxGeometry width="50" height="50" relative="1" as="geometry">
            <mxPoint x="95.27999999999997" y="150" as="sourcePoint" />
            <mxPoint x="230" y="150" as="targetPoint" />
          </mxGeometry>
        </mxCell>
        <mxCell id="O5IFN6yBmJt1TvF79zhz-6" value="" style="rounded=0;whiteSpace=wrap;html=1;rotation=-90;" vertex="1" parent="1">
          <mxGeometry x="148.75" y="301.25" width="332.5" height="10" as="geometry" />
        </mxCell>
        <mxCell id="O5IFN6yBmJt1TvF79zhz-7" value="" style="endArrow=classic;html=1;rounded=0;" edge="1" parent="1">
          <mxGeometry width="50" height="50" relative="1" as="geometry">
            <mxPoint x="320" y="180" as="sourcePoint" />
            <mxPoint x="530" y="180" as="targetPoint" />
          </mxGeometry>
        </mxCell>
        <mxCell id="O5IFN6yBmJt1TvF79zhz-8" value="analyseOneSensor(string sensorId)" style="text;html=1;strokeColor=none;fillColor=none;align=center;verticalAlign=middle;whiteSpace=wrap;rounded=0;" vertex="1" parent="1">
          <mxGeometry x="351" y="190" width="100.63" height="30" as="geometry" />
        </mxCell>
        <mxCell id="O5IFN6yBmJt1TvF79zhz-9" value="" style="endArrow=none;dashed=1;html=1;dashPattern=1 3;strokeWidth=2;rounded=0;" edge="1" parent="1">
          <mxGeometry width="50" height="50" relative="1" as="geometry">
            <mxPoint x="320" y="425" as="sourcePoint" />
            <mxPoint x="530" y="425" as="targetPoint" />
          </mxGeometry>
        </mxCell>
        <mxCell id="O5IFN6yBmJt1TvF79zhz-10" value="" style="endArrow=none;html=1;rounded=0;" edge="1" parent="1">
          <mxGeometry width="50" height="50" relative="1" as="geometry">
            <mxPoint x="320" y="425" as="sourcePoint" />
            <mxPoint x="330" y="415" as="targetPoint" />
          </mxGeometry>
        </mxCell>
        <mxCell id="O5IFN6yBmJt1TvF79zhz-11" value="" style="endArrow=none;html=1;rounded=0;" edge="1" parent="1">
          <mxGeometry width="50" height="50" relative="1" as="geometry">
            <mxPoint x="320" y="425" as="sourcePoint" />
            <mxPoint x="330" y="435" as="targetPoint" />
            <Array as="points">
              <mxPoint x="330" y="435" />
            </Array>
          </mxGeometry>
        </mxCell>
        <mxCell id="O5IFN6yBmJt1TvF79zhz-12" value="return" style="text;html=1;strokeColor=none;fillColor=none;align=center;verticalAlign=middle;whiteSpace=wrap;rounded=0;" vertex="1" parent="1">
          <mxGeometry x="389" y="430" width="60" height="30" as="geometry" />
        </mxCell>
        <mxCell id="O5IFN6yBmJt1TvF79zhz-13" value="" style="endArrow=classic;html=1;rounded=0;exitX=0.459;exitY=-0.383;exitDx=0;exitDy=0;exitPerimeter=0;" edge="1" parent="1">
          <mxGeometry width="50" height="50" relative="1" as="geometry">
            <mxPoint x="310" y="425" as="sourcePoint" />
            <mxPoint x="100" y="425" as="targetPoint" />
          </mxGeometry>
        </mxCell>
        <mxCell id="O5IFN6yBmJt1TvF79zhz-14" value="Displays the mean" style="text;html=1;strokeColor=none;fillColor=none;align=center;verticalAlign=middle;whiteSpace=wrap;rounded=0;" vertex="1" parent="1">
          <mxGeometry x="159" y="435" width="125" height="30" as="geometry" />
        </mxCell>
        <mxCell id="O5IFN6yBmJt1TvF79zhz-15" value="" style="endArrow=none;dashed=1;html=1;dashPattern=1 3;strokeWidth=2;rounded=0;entryX=0.5;entryY=1;entryDx=0;entryDy=0;" edge="1" parent="1" target="O5IFN6yBmJt1TvF79zhz-3">
          <mxGeometry width="50" height="50" relative="1" as="geometry">
            <mxPoint x="95" y="470" as="sourcePoint" />
            <mxPoint x="100" y="130" as="targetPoint" />
          </mxGeometry>
        </mxCell>
        <mxCell id="O5IFN6yBmJt1TvF79zhz-16" value="1 : Request the quality of a given sensor" style="text;html=1;strokeColor=none;fillColor=none;align=center;verticalAlign=middle;whiteSpace=wrap;rounded=0;" vertex="1" parent="1">
          <mxGeometry x="90" y="155" width="225" height="30" as="geometry" />
        </mxCell>
        <mxCell id="O5IFN6yBmJt1TvF79zhz-17" value="" style="endArrow=none;dashed=1;html=1;dashPattern=1 3;strokeWidth=2;rounded=0;entryX=0.5;entryY=1;entryDx=0;entryDy=0;exitX=1;exitY=0.5;exitDx=0;exitDy=0;" edge="1" parent="1" source="O5IFN6yBmJt1TvF79zhz-6" target="O5IFN6yBmJt1TvF79zhz-1">
          <mxGeometry width="50" height="50" relative="1" as="geometry">
            <mxPoint x="240" y="180" as="sourcePoint" />
            <mxPoint x="290" y="130" as="targetPoint" />
          </mxGeometry>
        </mxCell>
        <mxCell id="O5IFN6yBmJt1TvF79zhz-18" value="" style="rounded=0;whiteSpace=wrap;html=1;" vertex="1" parent="1">
          <mxGeometry x="450" y="80" width="170" height="40" as="geometry" />
        </mxCell>
        <mxCell id="O5IFN6yBmJt1TvF79zhz-19" value="Controller.Service" style="text;html=1;strokeColor=none;fillColor=none;align=center;verticalAlign=middle;whiteSpace=wrap;rounded=0;" vertex="1" parent="1">
          <mxGeometry x="505.62" y="85" width="60" height="30" as="geometry" />
        </mxCell>
        <mxCell id="O5IFN6yBmJt1TvF79zhz-20" value="" style="rounded=0;whiteSpace=wrap;html=1;rotation=-90;" vertex="1" parent="1">
          <mxGeometry x="357.98" y="345.81" width="355.32" height="10" as="geometry" />
        </mxCell>
        <mxCell id="O5IFN6yBmJt1TvF79zhz-21" value="" style="endArrow=none;dashed=1;html=1;dashPattern=1 3;strokeWidth=2;rounded=0;exitX=1;exitY=0.5;exitDx=0;exitDy=0;entryX=0.5;entryY=1.036;entryDx=0;entryDy=0;entryPerimeter=0;" edge="1" parent="1" source="O5IFN6yBmJt1TvF79zhz-20" target="O5IFN6yBmJt1TvF79zhz-18">
          <mxGeometry width="50" height="50" relative="1" as="geometry">
            <mxPoint x="530.62" y="140" as="sourcePoint" />
            <mxPoint x="580.62" y="90" as="targetPoint" />
          </mxGeometry>
        </mxCell>
        <mxCell id="O5IFN6yBmJt1TvF79zhz-22" value="" style="rounded=0;whiteSpace=wrap;html=1;" vertex="1" parent="1">
          <mxGeometry x="640" y="80" width="170" height="40" as="geometry" />
        </mxCell>
        <mxCell id="O5IFN6yBmJt1TvF79zhz-23" value="Model.SensorFunctions sensorFunctions" style="text;html=1;strokeColor=none;fillColor=none;align=center;verticalAlign=middle;whiteSpace=wrap;rounded=0;" vertex="1" parent="1">
          <mxGeometry x="695.62" y="85" width="60" height="30" as="geometry" />
        </mxCell>
        <mxCell id="O5IFN6yBmJt1TvF79zhz-24" value="" style="rounded=0;whiteSpace=wrap;html=1;rotation=-90;" vertex="1" parent="1">
          <mxGeometry x="554.23" y="344.56" width="342.82" height="10" as="geometry" />
        </mxCell>
        <mxCell id="O5IFN6yBmJt1TvF79zhz-26" value="" style="endArrow=none;dashed=1;html=1;dashPattern=1 3;strokeWidth=2;rounded=0;exitX=1;exitY=0.5;exitDx=0;exitDy=0;entryX=0.5;entryY=1.036;entryDx=0;entryDy=0;entryPerimeter=0;" edge="1" parent="1" source="O5IFN6yBmJt1TvF79zhz-24" target="O5IFN6yBmJt1TvF79zhz-22">
          <mxGeometry width="50" height="50" relative="1" as="geometry">
            <mxPoint x="720.62" y="140" as="sourcePoint" />
            <mxPoint x="770.62" y="90" as="targetPoint" />
          </mxGeometry>
        </mxCell>
        <mxCell id="O5IFN6yBmJt1TvF79zhz-27" value="" style="endArrow=classic;html=1;rounded=0;exitX=0.933;exitY=1.337;exitDx=0;exitDy=0;exitPerimeter=0;" edge="1" parent="1" source="O5IFN6yBmJt1TvF79zhz-20">
          <mxGeometry width="50" height="50" relative="1" as="geometry">
            <mxPoint x="560" y="262.75" as="sourcePoint" />
            <mxPoint x="720" y="197" as="targetPoint" />
          </mxGeometry>
        </mxCell>
        <mxCell id="O5IFN6yBmJt1TvF79zhz-28" value="analyseOneSensor(string sensorId)" style="text;html=1;strokeColor=none;fillColor=none;align=center;verticalAlign=middle;whiteSpace=wrap;rounded=0;" vertex="1" parent="1">
          <mxGeometry x="555.62" y="205.33" width="154.38" height="64.67" as="geometry" />
        </mxCell>
        <mxCell id="O5IFN6yBmJt1TvF79zhz-29" value="" style="endArrow=none;dashed=1;html=1;dashPattern=1 3;strokeWidth=2;rounded=0;" edge="1" parent="1">
          <mxGeometry width="50" height="50" relative="1" as="geometry">
            <mxPoint x="546.93" y="490" as="sourcePoint" />
            <mxPoint x="728.31" y="490" as="targetPoint" />
          </mxGeometry>
        </mxCell>
        <mxCell id="O5IFN6yBmJt1TvF79zhz-30" value="" style="endArrow=none;html=1;rounded=0;" edge="1" parent="1">
          <mxGeometry width="50" height="50" relative="1" as="geometry">
            <mxPoint x="546.93" y="490" as="sourcePoint" />
            <mxPoint x="556.93" y="480" as="targetPoint" />
          </mxGeometry>
        </mxCell>
        <mxCell id="O5IFN6yBmJt1TvF79zhz-31" value="" style="endArrow=none;html=1;rounded=0;" edge="1" parent="1">
          <mxGeometry width="50" height="50" relative="1" as="geometry">
            <mxPoint x="546.93" y="490" as="sourcePoint" />
            <mxPoint x="556.93" y="500" as="targetPoint" />
            <Array as="points">
              <mxPoint x="556.93" y="500" />
            </Array>
          </mxGeometry>
        </mxCell>
        <mxCell id="O5IFN6yBmJt1TvF79zhz-32" value="return the mean of the difference between the two values" style="text;html=1;strokeColor=none;fillColor=none;align=center;verticalAlign=middle;whiteSpace=wrap;rounded=0;" vertex="1" parent="1">
          <mxGeometry x="582.25" y="510" width="111.38" height="35" as="geometry" />
        </mxCell>
        <mxCell id="O5IFN6yBmJt1TvF79zhz-33" value="" style="rounded=0;whiteSpace=wrap;html=1;rotation=-90;" vertex="1" parent="1">
          <mxGeometry x="838.91" y="254.24" width="133.45" height="10" as="geometry" />
        </mxCell>
        <mxCell id="O5IFN6yBmJt1TvF79zhz-34" value="" style="endArrow=none;dashed=1;html=1;dashPattern=1 3;strokeWidth=2;rounded=0;entryX=0.551;entryY=0.997;entryDx=0;entryDy=0;entryPerimeter=0;" edge="1" parent="1" target="O5IFN6yBmJt1TvF79zhz-35">
          <mxGeometry width="50" height="50" relative="1" as="geometry">
            <mxPoint x="905" y="190" as="sourcePoint" />
            <mxPoint x="905.3499999999999" y="111.88" as="targetPoint" />
          </mxGeometry>
        </mxCell>
        <mxCell id="O5IFN6yBmJt1TvF79zhz-35" value="" style="rounded=0;whiteSpace=wrap;html=1;" vertex="1" parent="1">
          <mxGeometry x="830.6199999999999" y="80" width="139.38" height="40" as="geometry" />
        </mxCell>
        <mxCell id="O5IFN6yBmJt1TvF79zhz-36" value="Model.Sensor&lt;br&gt;(Class) Sensor S" style="text;html=1;strokeColor=none;fillColor=none;align=center;verticalAlign=middle;whiteSpace=wrap;rounded=0;" vertex="1" parent="1">
          <mxGeometry x="860.31" y="85" width="80" height="32.5" as="geometry" />
        </mxCell>
        <mxCell id="O5IFN6yBmJt1TvF79zhz-37" value="" style="endArrow=classic;html=1;rounded=0;exitX=0.895;exitY=0.937;exitDx=0;exitDy=0;exitPerimeter=0;" edge="1" parent="1" source="O5IFN6yBmJt1TvF79zhz-24">
          <mxGeometry width="50" height="50" relative="1" as="geometry">
            <mxPoint x="742" y="307.12" as="sourcePoint" />
            <mxPoint x="900" y="214" as="targetPoint" />
          </mxGeometry>
        </mxCell>
        <mxCell id="O5IFN6yBmJt1TvF79zhz-38" value="1. getMeasurements() list m&lt;br&gt;for the given sensor s (getted by findSensor(string) method" style="text;html=1;strokeColor=none;fillColor=none;align=center;verticalAlign=middle;whiteSpace=wrap;rounded=0;" vertex="1" parent="1">
          <mxGeometry x="735.31" y="218.84" width="164.69" height="60" as="geometry" />
        </mxCell>
        <mxCell id="O5IFN6yBmJt1TvF79zhz-39" value="" style="rounded=0;whiteSpace=wrap;html=1;rotation=-90;" vertex="1" parent="1">
          <mxGeometry x="1000" y="350.63" width="231.25" height="10" as="geometry" />
        </mxCell>
        <mxCell id="O5IFN6yBmJt1TvF79zhz-40" value="" style="endArrow=none;dashed=1;html=1;dashPattern=1 3;strokeWidth=2;rounded=0;" edge="1" parent="1">
          <mxGeometry width="50" height="50" relative="1" as="geometry">
            <mxPoint x="1115.35" y="230.63" as="sourcePoint" />
            <mxPoint x="1115.35" y="110.63" as="targetPoint" />
          </mxGeometry>
        </mxCell>
        <mxCell id="O5IFN6yBmJt1TvF79zhz-41" value="" style="rounded=0;whiteSpace=wrap;html=1;" vertex="1" parent="1">
          <mxGeometry x="1045.9399999999998" y="80" width="139.38" height="40" as="geometry" />
        </mxCell>
        <mxCell id="O5IFN6yBmJt1TvF79zhz-42" value="Model.Measurments&lt;br&gt;m[i] (i : 1 -&amp;gt;n)" style="text;html=1;strokeColor=none;fillColor=none;align=center;verticalAlign=middle;whiteSpace=wrap;rounded=0;" vertex="1" parent="1">
          <mxGeometry x="1075.78" y="85" width="79.69" height="30" as="geometry" />
        </mxCell>
        <mxCell id="O5IFN6yBmJt1TvF79zhz-43" value="" style="endArrow=none;dashed=1;html=1;dashPattern=1 3;strokeWidth=2;rounded=0;" edge="1" parent="1">
          <mxGeometry width="50" height="50" relative="1" as="geometry">
            <mxPoint x="725.9300000000001" y="320.33" as="sourcePoint" />
            <mxPoint x="900" y="320" as="targetPoint" />
          </mxGeometry>
        </mxCell>
        <mxCell id="O5IFN6yBmJt1TvF79zhz-44" value="" style="endArrow=none;html=1;rounded=0;exitX=0.722;exitY=1.036;exitDx=0;exitDy=0;exitPerimeter=0;" edge="1" parent="1">
          <mxGeometry width="50" height="50" relative="1" as="geometry">
            <mxPoint x="726.3050000000001" y="320.30986000000007" as="sourcePoint" />
            <mxPoint x="735.31" y="310.33" as="targetPoint" />
          </mxGeometry>
        </mxCell>
        <mxCell id="O5IFN6yBmJt1TvF79zhz-45" value="" style="endArrow=none;html=1;rounded=0;" edge="1" parent="1">
          <mxGeometry width="50" height="50" relative="1" as="geometry">
            <mxPoint x="725.31" y="320.33" as="sourcePoint" />
            <mxPoint x="735.31" y="330.33" as="targetPoint" />
            <Array as="points" />
          </mxGeometry>
        </mxCell>
        <mxCell id="O5IFN6yBmJt1TvF79zhz-57" value="Analyse OneSensor" style="text;strokeColor=none;fillColor=none;html=1;fontSize=24;fontStyle=1;verticalAlign=middle;align=center;" vertex="1" parent="1">
          <mxGeometry x="587.62" y="26" width="100" height="40" as="geometry" />
        </mxCell>
        <mxCell id="O5IFN6yBmJt1TvF79zhz-63" style="edgeStyle=orthogonalEdgeStyle;rounded=0;orthogonalLoop=1;jettySize=auto;html=1;exitX=0.5;exitY=1;exitDx=0;exitDy=0;entryX=0.126;entryY=1.043;entryDx=0;entryDy=0;entryPerimeter=0;" edge="1" parent="1">
          <mxGeometry relative="1" as="geometry">
            <mxPoint x="730.0050000000001" y="341.49" as="sourcePoint" />
            <mxPoint x="730.435" y="369.7756200000001" as="targetPoint" />
            <Array as="points">
              <mxPoint x="777.19" y="341.49" />
              <mxPoint x="777.19" y="369.49" />
            </Array>
          </mxGeometry>
        </mxCell>
        <mxCell id="O5IFN6yBmJt1TvF79zhz-64" value="3. for each Measurment m[i], we call the instantAirQuality(80,s.getLongitude(),s.getLatitude(),&lt;br&gt;m[i].getTimeStamp())" style="text;html=1;strokeColor=none;fillColor=none;align=center;verticalAlign=middle;whiteSpace=wrap;rounded=0;" vertex="1" parent="1">
          <mxGeometry x="771.72" y="276.42" width="338.28" height="153.58" as="geometry" />
        </mxCell>
        <mxCell id="O5IFN6yBmJt1TvF79zhz-67" value="2. return list &amp;lt;Measurment&amp;gt; m" style="text;html=1;strokeColor=none;fillColor=none;align=center;verticalAlign=middle;whiteSpace=wrap;rounded=0;" vertex="1" parent="1">
          <mxGeometry x="746.12" y="281.25" width="153.88" height="30" as="geometry" />
        </mxCell>
        <mxCell id="O5IFN6yBmJt1TvF79zhz-73" value="6. comparing this instantAirQuality with AQI of the sensor for each measurment" style="text;html=1;strokeColor=none;fillColor=none;align=center;verticalAlign=middle;whiteSpace=wrap;rounded=0;" vertex="1" parent="1">
          <mxGeometry x="785.94" y="450" width="270" height="30" as="geometry" />
        </mxCell>
        <mxCell id="O5IFN6yBmJt1TvF79zhz-81" style="edgeStyle=orthogonalEdgeStyle;rounded=0;orthogonalLoop=1;jettySize=auto;html=1;exitX=0.5;exitY=1;exitDx=0;exitDy=0;entryX=0.126;entryY=1.043;entryDx=0;entryDy=0;entryPerimeter=0;" edge="1" parent="1">
          <mxGeometry relative="1" as="geometry">
            <mxPoint x="729.9950000000001" y="436.71" as="sourcePoint" />
            <mxPoint x="730.425" y="464.9956200000001" as="targetPoint" />
            <Array as="points">
              <mxPoint x="784.69" y="436.71" />
              <mxPoint x="784.69" y="464.71" />
            </Array>
          </mxGeometry>
        </mxCell>
        <mxCell id="O5IFN6yBmJt1TvF79zhz-83" value="" style="endArrow=classic;html=1;rounded=0;exitX=0.933;exitY=1.337;exitDx=0;exitDy=0;exitPerimeter=0;" edge="1" parent="1">
          <mxGeometry width="50" height="50" relative="1" as="geometry">
            <mxPoint x="730.77" y="390" as="sourcePoint" />
            <mxPoint x="1111.12" y="390" as="targetPoint" />
          </mxGeometry>
        </mxCell>
        <mxCell id="O5IFN6yBmJt1TvF79zhz-84" value="4. m[i].getAQI()" style="text;html=1;strokeColor=none;fillColor=none;align=center;verticalAlign=middle;whiteSpace=wrap;rounded=0;" vertex="1" parent="1">
          <mxGeometry x="765.31" y="390" width="270" height="30" as="geometry" />
        </mxCell>
        <mxCell id="O5IFN6yBmJt1TvF79zhz-86" value="" style="endArrow=none;dashed=1;html=1;dashPattern=1 3;strokeWidth=2;rounded=0;" edge="1" parent="1">
          <mxGeometry width="50" height="50" relative="1" as="geometry">
            <mxPoint x="735.31" y="422.42" as="sourcePoint" />
            <mxPoint x="1110" y="420" as="targetPoint" />
          </mxGeometry>
        </mxCell>
        <mxCell id="O5IFN6yBmJt1TvF79zhz-87" value="" style="endArrow=none;html=1;rounded=0;" edge="1" parent="1">
          <mxGeometry width="50" height="50" relative="1" as="geometry">
            <mxPoint x="735.31" y="422.42" as="sourcePoint" />
            <mxPoint x="745.31" y="412.42" as="targetPoint" />
          </mxGeometry>
        </mxCell>
        <mxCell id="O5IFN6yBmJt1TvF79zhz-88" value="" style="endArrow=none;html=1;rounded=0;" edge="1" parent="1">
          <mxGeometry width="50" height="50" relative="1" as="geometry">
            <mxPoint x="735.31" y="422.42" as="sourcePoint" />
            <mxPoint x="745.31" y="432.42" as="targetPoint" />
            <Array as="points">
              <mxPoint x="745.31" y="432.42" />
            </Array>
          </mxGeometry>
        </mxCell>
        <mxCell id="O5IFN6yBmJt1TvF79zhz-89" value="5.return" style="text;html=1;strokeColor=none;fillColor=none;align=center;verticalAlign=middle;whiteSpace=wrap;rounded=0;" vertex="1" parent="1">
          <mxGeometry x="860.31" y="420" width="60" height="30" as="geometry" />
        </mxCell>
      </root>
    </mxGraphModel>
  </diagram>
</mxfile>
